<?xml version="1.0" encoding="utf-8"?>
<!-- Generator: Adobe Illustrator 15.1.0, SVG Export Plug-In . SVG Version: 6.00 Build 0)  -->
<!DOCTYPE svg PUBLIC "-//W3C//DTD SVG 1.1//EN" "http://www.w3.org/Graphics/SVG/1.1/DTD/svg11.dtd">
<svg version="1.1" id="Capa_1" xmlns="http://www.w3.org/2000/svg" xmlns:xlink="http://www.w3.org/1999/xlink" x="0px" y="0px"
	 width="490.7px" height="490.7px" viewBox="0 0 490.7 490.7" style="enable-background:new 0 0 490.7 490.7;" xml:space="preserve"
	>
<style type="text/css">
<![CDATA[
	.st0{fill:none;stroke:#FFFFFF;stroke-width:25;stroke-miterlimit:10;}
	.st1{fill:#FFFFFF;}
]]>
</style>
<path d="M0,0v490.7h490.7V0H0z M130.4,405.3c0,6.8-5.5,12.2-12.2,12.2h-49c-6.8,0-12.2-5.5-12.2-12.2V191.1
	c0-6.8,5.5-12.2,12.2-12.2h49c6.8,0,12.2,5.5,12.2,12.2V405.3z M130.4,129c0,6.8-5.5,12.2-12.2,12.2h-49c-6.8,0-12.2-5.5-12.2-12.2
	V85.4c0-6.8,5.5-12.2,12.2-12.2h49c6.8,0,12.2,5.5,12.2,12.2V129z M433.8,405.3L433.8,405.3c0,6.8-5.5,12.2-12.2,12.2h-49
	c-6.8,0-12.2-5.5-12.2-12.2v-90.4c0-30-1.6-49.4-4.7-58.2c-3.1-8.8-8.2-15.6-15.3-20.5c-7.1-4.9-15.6-7.3-25.5-7.3
	c-12.7,0-24.1,3.5-34.3,10.5c-10.1,7-17,16.2-20.8,27.7c-3.7,11.5-5.6,32.8-5.6,63.8v74.5c0,6.8-5.5,12.2-12.2,12.2h-49
	c-6.8,0-12.2-5.5-12.2-12.2V191.1c0-6.8,5.5-12.2,12.2-12.2h43.8c6.8,0,12.2,5.5,12.2,12.2v16.3c0,6.8,3.3,7.9,7.9,2.9
	c22.9-25.1,50.8-37.7,83.7-37.7c16.2,0,31,2.9,44.5,8.8c13.4,5.8,23.6,13.3,30.5,22.4c6.9,9.1,11.7,19.3,14.4,30.9
	c2.7,11.5,4.1,28,4.1,49.4V405.3z"/>
<path d="M555.6-653.4v490.7h7.9h153.3v-0.1c6.9-0.1,12.2-4,12.5-10.5c0.6-17,0.2-34.1,0.2-50.6c-12.3,0.6-24.1,2.1-35.8,1.5
	c-25.7-1.5-45.5-12.5-55.7-37.6c-6.1-14.9-15.2-27.7-29.5-36.2c-2.7-1.6-5-3.9-7-6.3c-2.7-3.1-2.2-6.3,2-7.1
	c4.2-0.9,8.9-1.5,13.1-0.7c16.4,3.1,27.8,13.4,36.5,27.1c17.2,27.1,43.6,35.4,73.4,22.9c1.7-0.7,3.8-2.4,4.1-3.9
	c2.4-12,6.9-22.9,15.9-32.5c-10-1.9-19.4-3.2-28.5-5.3c-26.3-6.1-49.9-17-67.1-38.7c-14.1-17.7-20.5-38.5-23.5-60.5
	c-4.6-34.6-0.5-67,23.3-94.6c1.2-1.4,1.8-4.3,1.3-6c-5.9-19.4-5-38.7,0.9-57.9c3.1-10.1,4-10.6,14.3-9.2c0.6,0.1,1.2,0.2,1.9,0.3
	c20.6,3.4,38.4,13.4,55.9,24.1c2.4,1.4,5.9,2.3,8.5,1.7c41.8-10.1,83.5-10.1,125.3,0c2.4,0.6,5.7-0.2,8-1.5
	c9.5-5,18.6-10.8,28.3-15.5c11.2-5.5,23-9.6,35.7-9.4c2.2,0,5.7,2.2,6.4,4.1c7.7,20.3,9.3,40.9,3.2,62c-0.7,2.3,0.3,5.5,1.5,7.7
	c6,11,14.4,21.2,18.2,32.9c11.6,35.7,7.4,71-8.4,104.6c-14.5,30.8-41.3,46.3-73.1,54.4c-10.7,2.7-21.7,4.4-33.3,6.6
	c15.2,15.9,17.6,35.2,17.3,55.5c-0.3,20.9-0.2,41.8-0.2,62.7c0,10.1,4.4,15.7,12.1,16c0,0,163,0,163,0l-320.6,0l0,0h328.5v-490.7
	H555.6z"/>
<g>
	<path d="M-958.4-477.1c2-4.6,3-12.1,3-22.5c0-13.8-2.2-23.2-6.7-28.2c-4.5-5.1-11.9-7.6-22.3-7.6h-10v70.9h9.8
		c8.4,0,14.3-0.9,17.9-2.8C-963.2-469.2-960.4-472.5-958.4-477.1z"/>
	<path d="M-1095.1-523.9c0-4.1-1.4-7.5-4.1-10.4c-2.7-2.8-7.8-4.3-15.3-4.3h-11.4v29h9.8c7.7,0,13.2-1.3,16.3-4
		C-1096.6-516.3-1095.1-519.7-1095.1-523.9z"/>
	<path d="M-1231.4-720.1v490.7h490.7V-617l-103.1-103.1 M-1034.5-564.9h59.6c11.7,0,21.2,1.6,28.5,4.8c7.2,3.2,13.2,7.8,17.9,13.7
		c4.7,6,8.1,12.9,10.3,20.8s3.2,16.3,3.2,25.1c0,13.9-1.6,24.6-4.7,32.3c-3.2,7.6-7.5,14-13.1,19.2c-5.6,5.2-11.6,8.6-18.1,10.3
		c-8.8,2.4-16.8,3.5-23.9,3.5h-59.6V-564.9z M-1003.2-362.5v-37.9h34.3v37.9l34.2-7.2l-51.4,61.4l-51.4-61.4L-1003.2-362.5z
		 M-1125.9-435.1h-40.3v-129.8h66.7c14.5,0,25.4,3.5,32.6,10.4c7.2,6.9,10.8,16.7,10.8,29.5c0,13.1-3.9,23.3-11.8,30.7
		c-7.9,7.4-19.9,11.1-36.1,11.1h-22V-435.1z M-864.4-265.7h-243.3v-70.6h25v45.6h193.3v-45.6h25V-265.7z M-794.7-537h-58.9v22.7
		h50.3v26.2h-50.3v53h-40.3v-129.8h99.2V-537z M-752.4-597.4h-103.1v-103.1L-752.4-597.4z"/>
</g>
<path d="M-3069.7-286.2v490.7h490.7v-490.7H-3069.7z"/>
<path class="st1" d="M-2578.9-183.1v-103.1H-2682"/>
<path class="st1" d="M-2693.7-266.6v103.1h103.1"/>
<g>
	<path class="st1" d="M-3004.4-131.1h66.7c14.5,0,25.4,3.5,32.6,10.4c7.2,6.9,10.8,16.7,10.8,29.5c0,13.1-3.9,23.3-11.8,30.7
		c-7.9,7.4-19.9,11.1-36.1,11.1h-22v48.2h-40.3V-131.1z M-2964.2-75.7h9.8c7.7,0,13.2-1.3,16.3-4c3.1-2.7,4.7-6.1,4.7-10.3
		c0-4.1-1.4-7.5-4.1-10.4c-2.7-2.8-7.8-4.3-15.3-4.3h-11.4V-75.7z"/>
	<path class="st1" d="M-2872.8-131.1h59.6c11.7,0,21.2,1.6,28.5,4.8c7.2,3.2,13.2,7.8,17.9,13.7c4.7,6,8.1,12.9,10.3,20.8
		c2.1,7.9,3.2,16.3,3.2,25.1c0,13.9-1.6,24.6-4.7,32.3c-3.2,7.6-7.5,14-13.1,19.2c-5.6,5.2-11.6,8.6-18.1,10.3
		c-8.8,2.4-16.8,3.5-23.9,3.5h-59.6V-131.1z M-2832.7-101.7v70.9h9.8c8.4,0,14.3-0.9,17.9-2.8c3.5-1.9,6.3-5.1,8.3-9.7
		s3-12.1,3-22.5c0-13.8-2.2-23.2-6.7-28.2c-4.5-5.1-11.9-7.6-22.3-7.6H-2832.7z"/>
	<path class="st1" d="M-2732.1-131.1h99.2v27.9h-58.9v22.7h50.3v26.2h-50.3v53h-40.3V-131.1z"/>
</g>
<polyline class="st0" points="-2715.1,97.6 -2715.1,155.7 -2933.5,155.7 -2933.5,97.6 "/>
<rect x="-2841.5" y="33.5" class="st1" width="34.3" height="50.2"/>
<polygon class="st1" points="-2875.7,64.2 -2824.3,125.6 -2772.9,64.2 -2824.3,75 "/>
<path d="M1092.1-408V82.7h490.7V-408H1092.1z M1374.1-376.3l-15.2,234.8l-234.8,15.2L1374.1-376.3z M1274.6,49l-153.9-153.9
	l164.5-10.7L1274.6,49z M1296.1,45.8l10.6-162.7l72.2-4.7l4.7-72.2l162.7-10.6L1296.1,45.8z M1384.9-215.1l10.7-164.5l153.9,153.9
	L1384.9-215.1z"/>
</svg>
